<?xml version="1.0" standalone="no"?>
<!DOCTYPE svg PUBLIC "-//W3C//DTD SVG 20010904//EN"
 "http://www.w3.org/TR/2001/REC-SVG-20010904/DTD/svg10.dtd">
<svg version="1.0" xmlns="http://www.w3.org/2000/svg"
 width="600.000000pt" height="600.000000pt" viewBox="0 0 600.000000 600.000000"
 preserveAspectRatio="xMidYMid meet">
<metadata>
Created by potrace 1.11, written by Peter Selinger 2001-2013
</metadata>
<g transform="translate(0.000000,600.000000) scale(0.100000,-0.100000)"
fill="#000000" stroke="none">
<path d="M2777 5489 c-57 -30 -172 -143 -222 -220 -135 -202 -205 -457 -205
-744 0 -287 70 -542 205 -744 53 -80 167 -191 227 -222 l43 -22 -58 62 c-78
84 -130 164 -188 285 -93 196 -132 388 -132 641 0 115 5 200 17 265 48 275
157 509 306 662 31 32 54 58 50 58 -3 -1 -22 -10 -43 -21z"/>
<path d="M3230 5452 c149 -153 258 -387 306 -662 12 -65 17 -150 17 -265 0
-253 -39 -445 -132 -641 -58 -121 -110 -201 -188 -285 l-58 -62 43 22 c60 31
174 142 227 222 135 202 205 457 205 744 0 367 -117 687 -320 878 -56 54 -133
107 -153 107 -1 0 22 -26 53 -58z"/>
<path d="M2944 5474 c-149 -99 -284 -304 -348 -529 -113 -396 -54 -859 149
-1164 50 -77 169 -194 221 -218 31 -15 37 -15 68 0 52 24 171 141 221 218 274
412 275 1078 1 1487 -70 105 -210 232 -256 232 -9 0 -35 -12 -56 -26z"/>
<path d="M2430 5399 c-152 -35 -382 -118 -535 -194 -768 -378 -1292 -1127
-1385 -1980 -13 -116 -13 -414 0 -530 30 -277 121 -589 244 -839 380 -769
1127 -1293 1981 -1386 116 -13 414 -13 530 0 472 52 936 244 1304 540 514 414
849 1027 921 1685 15 135 12 424 -5 565 -119 958 -777 1768 -1680 2069 -127
43 -311 91 -344 91 -6 0 12 -29 39 -65 27 -36 70 -107 96 -159 l46 -94 87 -37
c481 -207 906 -612 1140 -1089 109 -222 175 -436 212 -681 27 -187 23 -208
-16 -75 -99 339 -287 654 -544 910 -194 193 -400 337 -631 440 -163 73 -145
85 -147 -94 l-3 -153 105 -67 c741 -476 1070 -1338 834 -2186 l-24 -85 -6 175
c-9 260 -54 447 -159 666 -82 171 -178 303 -324 449 -182 182 -370 304 -598
389 l-68 25 -50 -59 c-28 -32 -78 -77 -110 -101 -54 -39 -66 -59 -37 -59 24 0
220 -100 300 -153 336 -222 562 -568 634 -972 21 -118 20 -351 0 -470 -60
-342 -238 -654 -495 -868 -200 -166 -438 -279 -674 -319 -196 -34 -556 108
-810 319 -257 214 -435 526 -495 868 -20 119 -21 352 0 470 72 404 298 750
634 972 80 53 276 153 300 153 28 0 20 20 -20 45 -23 16 -72 60 -109 98 l-68
71 -57 -18 c-94 -29 -252 -110 -369 -187 -150 -101 -344 -294 -443 -443 -184
-277 -268 -540 -280 -876 l-6 -175 -24 85 c-79 285 -98 598 -50 865 98 551
409 1016 884 1321 l105 67 -3 153 c-2 179 16 167 -147 94 -231 -103 -437 -247
-631 -440 -257 -256 -445 -571 -544 -910 -39 -133 -43 -112 -16 75 37 245 103
459 212 681 234 476 659 882 1140 1089 l87 37 46 94 c26 52 69 123 96 159 56
74 57 73 -70 44z m-820 -497 c-166 -138 -297 -275 -420 -437 -263 -348 -430
-764 -485 -1205 -17 -141 -20 -430 -5 -565 31 -282 123 -595 248 -845 78 -156
214 -376 325 -525 l59 -80 -57 55 c-132 127 -308 371 -406 562 -177 345 -262
700 -262 1098 0 398 85 753 262 1098 152 296 404 596 676 805 105 81 141 103
65 39z m2905 -88 c119 -95 301 -284 396 -409 322 -430 482 -907 482 -1445 0
-398 -85 -753 -262 -1098 -98 -191 -274 -435 -406 -562 l-57 -55 59 80 c206
278 371 582 457 845 90 276 126 498 126 790 0 389 -83 754 -249 1093 -164 336
-351 573 -671 851 -45 38 -45 38 -5 11 22 -16 81 -61 130 -101z m-2833 -671
c-329 -327 -526 -699 -615 -1162 -19 -101 -22 -149 -22 -371 0 -279 11 -367
74 -590 16 -58 28 -106 27 -108 -7 -6 -102 223 -138 333 -32 97 -41 143 -49
240 -15 200 11 461 68 665 115 414 361 788 698 1058 49 40 91 72 93 72 1 0
-60 -62 -136 -137z m2603 56 c327 -261 574 -639 688 -1049 57 -204 83 -465 68
-665 -8 -97 -17 -143 -49 -240 -36 -110 -131 -339 -138 -333 -1 2 11 50 27
108 63 223 74 311 74 590 0 222 -3 270 -22 371 -66 345 -197 645 -400 921 -42
56 -139 166 -217 243 -77 77 -134 135 -126 129 8 -6 51 -39 95 -75z m-2265
-926 c-236 -238 -379 -503 -452 -836 -19 -89 -22 -131 -22 -327 0 -196 3 -238
22 -327 28 -127 72 -261 122 -370 21 -46 38 -83 36 -83 -6 0 -105 129 -138
180 -91 139 -150 469 -128 719 25 282 106 515 261 746 81 121 243 292 354 373
39 29 71 52 71 52 1 0 -56 -57 -126 -127z m2070 -73 c269 -267 416 -586 450
-974 22 -249 -37 -577 -128 -716 -33 -51 -132 -180 -138 -180 -2 0 15 37 36
83 50 109 94 243 122 370 19 89 22 131 22 327 0 196 -3 238 -22 327 -72 333
-216 598 -452 835 -114 115 -120 122 -65 85 33 -23 112 -94 175 -157z"/>
</g>
</svg>
