<?xml version="1.0" standalone="no"?>
<!DOCTYPE svg PUBLIC "-//W3C//DTD SVG 20010904//EN"
 "http://www.w3.org/TR/2001/REC-SVG-20010904/DTD/svg10.dtd">
<svg version="1.0" xmlns="http://www.w3.org/2000/svg"
 width="570.000000pt" height="570.000000pt" viewBox="0 0 570.000000 570.000000"
 preserveAspectRatio="xMidYMid meet">
<metadata>
Created by potrace 1.11, written by Peter Selinger 2001-2013
</metadata>
<g transform="translate(0.000000,570.000000) scale(0.100000,-0.100000)"
fill="#000000" stroke="none">
<path d="M2285 5245 c-360 -84 -707 -253 -1000 -485 -103 -81 -304 -282 -385
-385 -289 -365 -465 -782 -532 -1260 -16 -118 -16 -495 0 -610 68 -482 243
-895 532 -1260 81 -103 282 -304 385 -385 853 -677 2029 -734 2930 -142 165
108 260 185 401 326 141 141 218 236 326 401 209 318 334 657 390 1060 7 50
13 186 13 305 0 218 -9 311 -46 500 -74 373 -253 755 -499 1065 -81 103 -282
304 -385 385 -297 235 -664 412 -1017 489 l-88 19 47 -65 c25 -35 67 -106 93
-156 l47 -91 99 -46 c273 -124 484 -270 689 -475 397 -396 627 -902 669 -1465
l5 -75 -24 90 c-39 148 -93 293 -155 420 -200 408 -524 741 -930 958 -91 49
-238 113 -244 106 -2 -2 -6 -69 -9 -150 l-6 -145 77 -46 c761 -457 1122 -1405
854 -2245 l-27 -86 3 116 c18 563 -261 1103 -733 1419 -96 64 -276 155 -361
182 l-52 17 -78 -79 c-44 -43 -92 -88 -109 -100 l-30 -21 35 -12 c59 -21 231
-111 310 -164 103 -68 312 -279 381 -385 110 -166 180 -333 221 -523 31 -147
31 -427 0 -574 -41 -190 -111 -357 -221 -523 -69 -106 -278 -317 -379 -384
-175 -115 -377 -200 -553 -230 -97 -17 -180 -5 -345 49 -217 71 -388 179 -564
355 -216 216 -338 438 -402 733 -31 147 -31 427 0 574 41 190 111 357 221 523
69 106 278 317 381 385 79 53 251 143 310 164 l35 12 -30 21 c-16 12 -65 57
-109 100 l-78 79 -52 -17 c-85 -27 -265 -118 -361 -182 -472 -316 -751 -856
-733 -1419 l3 -116 -27 86 c-54 170 -88 391 -88 577 0 676 364 1321 942 1668
l77 46 -6 145 c-3 81 -7 148 -9 150 -8 9 -206 -83 -308 -142 -142 -83 -263
-170 -369 -266 -328 -297 -542 -652 -657 -1091 l-19 -75 5 75 c41 562 272
1069 669 1465 205 205 416 351 689 475 l99 46 47 91 c26 50 68 121 94 157 26
36 46 66 44 65 -2 0 -48 -11 -103 -24z m-715 -408 c0 -2 -37 -32 -82 -67 -104
-80 -314 -289 -398 -395 -290 -366 -465 -781 -532 -1260 -16 -116 -16 -494 0
-610 53 -382 167 -703 358 -1013 91 -147 195 -301 250 -369 78 -97 71 -93 -41
22 -350 359 -572 809 -651 1320 -26 168 -26 522 0 690 104 676 468 1256 1031
1643 61 42 65 45 65 39z m2730 -116 c63 -47 174 -144 245 -216 372 -371 600
-824 681 -1350 26 -168 26 -522 0 -690 -79 -511 -301 -961 -651 -1320 -112
-115 -119 -119 -41 -22 55 68 159 222 250 369 191 310 305 631 358 1013 16
116 16 494 0 610 -67 479 -242 894 -532 1260 -84 106 -294 315 -397 395 -83
63 -108 88 -55 55 15 -10 79 -57 142 -104z m-2555 -544 c-59 -44 -167 -140
-241 -215 -560 -568 -757 -1421 -505 -2177 11 -33 18 -61 17 -63 -6 -5 -94
184 -129 279 -77 204 -82 232 -82 459 1 231 15 343 70 544 126 461 414 865
814 1144 73 51 115 73 56 29z m2334 -78 c101 -75 260 -226 346 -330 183 -219
324 -489 400 -765 55 -201 69 -313 70 -544 0 -227 -5 -255 -82 -459 -35 -95
-123 -284 -129 -279 -1 2 6 30 17 63 113 340 138 738 68 1090 -103 518 -384
967 -814 1303 l-30 24 35 -21 c19 -11 73 -48 119 -82z m-2084 -861 c-149 -123
-303 -308 -395 -473 -261 -472 -279 -1019 -49 -1515 46 -98 47 -103 19 -70
-68 79 -153 198 -172 240 -11 25 -32 95 -48 155 -161 624 83 1281 614 1656 85
60 98 63 31 7z m1771 -29 c310 -228 526 -567 605 -952 27 -132 35 -332 20
-467 -14 -114 -58 -298 -89 -370 -19 -42 -104 -161 -172 -240 -28 -33 -27 -28
19 70 118 255 170 510 158 775 -21 477 -228 894 -602 1214 -55 47 -21 31 61
-30z"/>
</g>
</svg>
